<?xml version="1.0" encoding="UTF-8" standalone="no"?>
<!DOCTYPE svg PUBLIC "-//W3C//DTD SVG 1.1//EN"
 "http://www.w3.org/Graphics/SVG/1.1/DTD/svg11.dtd">
<!-- Generated by graphviz version 8.0.5 (20230430.1635)
 -->
<!-- Pages: 1 -->
<svg width="1346pt" height="238pt"
 viewBox="0.00 0.00 1345.70 238.00" xmlns="http://www.w3.org/2000/svg" xmlns:xlink="http://www.w3.org/1999/xlink">
<g id="graph0" class="graph" transform="scale(1 1) rotate(0) translate(4 234)">
<polygon fill="white" stroke="none" points="-4,4 -4,-234 1341.7,-234 1341.7,4 -4,4"/>
<!-- 2189270328336 -->
<g id="node1" class="node">
<title>2189270328336</title>
<polygon fill="none" stroke="black" points="581.5,-55.5 581.5,-91.5 748.5,-91.5 748.5,-55.5 581.5,-55.5"/>
<text text-anchor="middle" x="624" y="-68.2" font-family="Times New Roman,serif" font-size="14.00">data &#45;0.1331</text>
<polyline fill="none" stroke="black" points="666.5,-55.75 666.5,-91.5"/>
<text text-anchor="middle" x="707.5" y="-68.2" font-family="Times New Roman,serif" font-size="14.00">grad 1.0000</text>
</g>
<!-- 2189270328528+ -->
<g id="node9" class="node">
<title>2189270328528+</title>
<ellipse fill="none" stroke="black" cx="811.5" cy="-100.5" rx="27" ry="18"/>
<text text-anchor="middle" x="811.5" y="-95.08" font-family="Times New Roman,serif" font-size="14.00">+</text>
</g>
<!-- 2189270328336&#45;&gt;2189270328528+ -->
<g id="edge10" class="edge">
<title>2189270328336&#45;&gt;2189270328528+</title>
<path fill="none" stroke="black" d="M748.38,-88.89C757.43,-90.58 766.26,-92.23 774.29,-93.73"/>
<polygon fill="black" stroke="black" points="773.58,-97.35 784.05,-95.74 774.86,-90.47 773.58,-97.35"/>
</g>
<!-- 2189270328336* -->
<g id="node2" class="node">
<title>2189270328336*</title>
<ellipse fill="none" stroke="black" cx="518.5" cy="-73.5" rx="27" ry="18"/>
<text text-anchor="middle" x="518.5" y="-68.08" font-family="Times New Roman,serif" font-size="14.00">*</text>
</g>
<!-- 2189270328336*&#45;&gt;2189270328336 -->
<g id="edge1" class="edge">
<title>2189270328336*&#45;&gt;2189270328336</title>
<path fill="none" stroke="black" d="M545.67,-73.5C553.15,-73.5 561.76,-73.5 570.86,-73.5"/>
<polygon fill="black" stroke="black" points="570.72,-77 580.72,-73.5 570.72,-70 570.72,-77"/>
</g>
<!-- 2189270702096 -->
<g id="node3" class="node">
<title>2189270702096</title>
<polygon fill="none" stroke="black" points="290.75,-165.5 290.75,-201.5 453.25,-201.5 453.25,-165.5 290.75,-165.5"/>
<text text-anchor="middle" x="331" y="-178.2" font-family="Times New Roman,serif" font-size="14.00">data 0.2355</text>
<polyline fill="none" stroke="black" points="371.25,-165.75 371.25,-201.5"/>
<text text-anchor="middle" x="412.25" y="-178.2" font-family="Times New Roman,serif" font-size="14.00">grad 1.0000</text>
</g>
<!-- 2189270325904+ -->
<g id="node7" class="node">
<title>2189270325904+</title>
<ellipse fill="none" stroke="black" cx="518.5" cy="-128.5" rx="27" ry="18"/>
<text text-anchor="middle" x="518.5" y="-123.08" font-family="Times New Roman,serif" font-size="14.00">+</text>
</g>
<!-- 2189270702096&#45;&gt;2189270325904+ -->
<g id="edge11" class="edge">
<title>2189270702096&#45;&gt;2189270325904+</title>
<path fill="none" stroke="black" d="M427.82,-165.61C437.1,-162.38 446.61,-158.94 455.5,-155.5 465.39,-151.68 476.02,-147.19 485.64,-142.98"/>
<polygon fill="black" stroke="black" points="486.86,-145.82 494.59,-138.57 484.03,-139.42 486.86,-145.82"/>
</g>
<!-- 2189270702096* -->
<g id="node4" class="node">
<title>2189270702096*</title>
<ellipse fill="none" stroke="black" cx="225.5" cy="-183.5" rx="27" ry="18"/>
<text text-anchor="middle" x="225.5" y="-178.07" font-family="Times New Roman,serif" font-size="14.00">*</text>
</g>
<!-- 2189270702096*&#45;&gt;2189270702096 -->
<g id="edge2" class="edge">
<title>2189270702096*&#45;&gt;2189270702096</title>
<path fill="none" stroke="black" d="M252.67,-183.5C260.73,-183.5 270.11,-183.5 279.99,-183.5"/>
<polygon fill="black" stroke="black" points="279.87,-187 289.87,-183.5 279.87,-180 279.87,-187"/>
</g>
<!-- 2189269008528 -->
<g id="node5" class="node">
<title>2189269008528</title>
<polygon fill="none" stroke="black" points="288.5,-55.5 288.5,-91.5 455.5,-91.5 455.5,-55.5 288.5,-55.5"/>
<text text-anchor="middle" x="328.75" y="-68.2" font-family="Times New Roman,serif" font-size="14.00">data 0.0665</text>
<polyline fill="none" stroke="black" points="369,-55.75 369,-91.5"/>
<text text-anchor="middle" x="412.25" y="-68.2" font-family="Times New Roman,serif" font-size="14.00">grad &#45;2.0000</text>
</g>
<!-- 2189269008528&#45;&gt;2189270328336* -->
<g id="edge8" class="edge">
<title>2189269008528&#45;&gt;2189270328336*</title>
<path fill="none" stroke="black" d="M455.38,-73.5C464.07,-73.5 472.56,-73.5 480.33,-73.5"/>
<polygon fill="black" stroke="black" points="480.14,-77 490.14,-73.5 480.14,-70 480.14,-77"/>
</g>
<!-- 2189270325904 -->
<g id="node6" class="node">
<title>2189270325904</title>
<polygon fill="none" stroke="black" points="583.75,-110.5 583.75,-146.5 746.25,-146.5 746.25,-110.5 583.75,-110.5"/>
<text text-anchor="middle" x="624" y="-123.2" font-family="Times New Roman,serif" font-size="14.00">data 0.2355</text>
<polyline fill="none" stroke="black" points="664.25,-110.75 664.25,-146.5"/>
<text text-anchor="middle" x="705.25" y="-123.2" font-family="Times New Roman,serif" font-size="14.00">grad 1.0000</text>
</g>
<!-- 2189270325904&#45;&gt;2189270328528+ -->
<g id="edge12" class="edge">
<title>2189270325904&#45;&gt;2189270328528+</title>
<path fill="none" stroke="black" d="M745.86,-113.03C755.86,-111.09 765.67,-109.19 774.5,-107.48"/>
<polygon fill="black" stroke="black" points="774.96,-110.76 784.11,-105.42 773.63,-103.89 774.96,-110.76"/>
</g>
<!-- 2189270325904+&#45;&gt;2189270325904 -->
<g id="edge3" class="edge">
<title>2189270325904+&#45;&gt;2189270325904</title>
<path fill="none" stroke="black" d="M545.67,-128.5C553.73,-128.5 563.11,-128.5 572.99,-128.5"/>
<polygon fill="black" stroke="black" points="572.87,-132 582.87,-128.5 572.87,-125 572.87,-132"/>
</g>
<!-- 2189270328528 -->
<g id="node8" class="node">
<title>2189270328528</title>
<polygon fill="none" stroke="black" points="874.5,-82.5 874.5,-118.5 1037,-118.5 1037,-82.5 874.5,-82.5"/>
<text text-anchor="middle" x="914.75" y="-95.2" font-family="Times New Roman,serif" font-size="14.00">data 0.1024</text>
<polyline fill="none" stroke="black" points="955,-82.75 955,-118.5"/>
<text text-anchor="middle" x="996" y="-95.2" font-family="Times New Roman,serif" font-size="14.00">grad 1.0000</text>
</g>
<!-- 2189269220304ReLU -->
<g id="node11" class="node">
<title>2189269220304ReLU</title>
<ellipse fill="none" stroke="black" cx="1106.1" cy="-100.5" rx="33.1" ry="18"/>
<text text-anchor="middle" x="1106.1" y="-95.08" font-family="Times New Roman,serif" font-size="14.00">ReLU</text>
</g>
<!-- 2189270328528&#45;&gt;2189269220304ReLU -->
<g id="edge13" class="edge">
<title>2189270328528&#45;&gt;2189269220304ReLU</title>
<path fill="none" stroke="black" d="M1036.57,-100.5C1045.24,-100.5 1053.81,-100.5 1061.79,-100.5"/>
<polygon fill="black" stroke="black" points="1061.65,-104 1071.65,-100.5 1061.65,-97 1061.65,-104"/>
</g>
<!-- 2189270328528+&#45;&gt;2189270328528 -->
<g id="edge4" class="edge">
<title>2189270328528+&#45;&gt;2189270328528</title>
<path fill="none" stroke="black" d="M838.92,-100.5C846.37,-100.5 854.92,-100.5 863.93,-100.5"/>
<polygon fill="black" stroke="black" points="863.68,-104 873.68,-100.5 863.68,-97 863.68,-104"/>
</g>
<!-- 2189269220304 -->
<g id="node10" class="node">
<title>2189269220304</title>
<polygon fill="none" stroke="black" points="1175.2,-82.5 1175.2,-118.5 1337.7,-118.5 1337.7,-82.5 1175.2,-82.5"/>
<text text-anchor="middle" x="1215.45" y="-95.2" font-family="Times New Roman,serif" font-size="14.00">data 0.1024</text>
<polyline fill="none" stroke="black" points="1255.7,-82.75 1255.7,-118.5"/>
<text text-anchor="middle" x="1296.7" y="-95.2" font-family="Times New Roman,serif" font-size="14.00">grad 1.0000</text>
</g>
<!-- 2189269220304ReLU&#45;&gt;2189269220304 -->
<g id="edge5" class="edge">
<title>2189269220304ReLU&#45;&gt;2189269220304</title>
<path fill="none" stroke="black" d="M1139.66,-100.5C1147.24,-100.5 1155.67,-100.5 1164.44,-100.5"/>
<polygon fill="black" stroke="black" points="1164.27,-104 1174.27,-100.5 1164.26,-97 1164.27,-104"/>
</g>
<!-- 2189268053776 -->
<g id="node12" class="node">
<title>2189268053776</title>
<polygon fill="none" stroke="black" points="0,-193.5 0,-229.5 162.5,-229.5 162.5,-193.5 0,-193.5"/>
<text text-anchor="middle" x="40.25" y="-206.2" font-family="Times New Roman,serif" font-size="14.00">data 0.2355</text>
<polyline fill="none" stroke="black" points="80.5,-193.75 80.5,-229.5"/>
<text text-anchor="middle" x="121.5" y="-206.2" font-family="Times New Roman,serif" font-size="14.00">grad 1.0000</text>
</g>
<!-- 2189268053776&#45;&gt;2189270702096* -->
<g id="edge14" class="edge">
<title>2189268053776&#45;&gt;2189270702096*</title>
<path fill="none" stroke="black" d="M162.11,-195.78C171.34,-193.96 180.37,-192.19 188.57,-190.57"/>
<polygon fill="black" stroke="black" points="189.03,-193.85 198.17,-188.49 187.68,-186.98 189.03,-193.85"/>
</g>
<!-- 2189268057424 -->
<g id="node13" class="node">
<title>2189268057424</title>
<polygon fill="none" stroke="black" points="290.75,-110.5 290.75,-146.5 453.25,-146.5 453.25,-110.5 290.75,-110.5"/>
<text text-anchor="middle" x="331" y="-123.2" font-family="Times New Roman,serif" font-size="14.00">data 0.0000</text>
<polyline fill="none" stroke="black" points="371.25,-110.75 371.25,-146.5"/>
<text text-anchor="middle" x="412.25" y="-123.2" font-family="Times New Roman,serif" font-size="14.00">grad 1.0000</text>
</g>
<!-- 2189268057424&#45;&gt;2189270325904+ -->
<g id="edge7" class="edge">
<title>2189268057424&#45;&gt;2189270325904+</title>
<path fill="none" stroke="black" d="M452.86,-128.5C462.37,-128.5 471.71,-128.5 480.19,-128.5"/>
<polygon fill="black" stroke="black" points="480.18,-132 490.18,-128.5 480.18,-125 480.18,-132"/>
</g>
<!-- 2189268079504 -->
<g id="node14" class="node">
<title>2189268079504</title>
<polygon fill="none" stroke="black" points="0,-138.5 0,-174.5 162.5,-174.5 162.5,-138.5 0,-138.5"/>
<text text-anchor="middle" x="40.25" y="-151.2" font-family="Times New Roman,serif" font-size="14.00">data 1.0000</text>
<polyline fill="none" stroke="black" points="80.5,-138.75 80.5,-174.5"/>
<text text-anchor="middle" x="121.5" y="-151.2" font-family="Times New Roman,serif" font-size="14.00">grad 0.2355</text>
</g>
<!-- 2189268079504&#45;&gt;2189270702096* -->
<g id="edge9" class="edge">
<title>2189268079504&#45;&gt;2189270702096*</title>
<path fill="none" stroke="black" d="M162.11,-171.66C171.34,-173.41 180.37,-175.12 188.57,-176.68"/>
<polygon fill="black" stroke="black" points="187.69,-180.27 198.17,-178.69 189,-173.39 187.69,-180.27"/>
</g>
<!-- 2189269219792 -->
<g id="node15" class="node">
<title>2189269219792</title>
<polygon fill="none" stroke="black" points="288.5,-0.5 288.5,-36.5 455.5,-36.5 455.5,-0.5 288.5,-0.5"/>
<text text-anchor="middle" x="331" y="-13.2" font-family="Times New Roman,serif" font-size="14.00">data &#45;2.0000</text>
<polyline fill="none" stroke="black" points="373.5,-0.75 373.5,-36.5"/>
<text text-anchor="middle" x="414.5" y="-13.2" font-family="Times New Roman,serif" font-size="14.00">grad 0.0665</text>
</g>
<!-- 2189269219792&#45;&gt;2189270328336* -->
<g id="edge6" class="edge">
<title>2189269219792&#45;&gt;2189270328336*</title>
<path fill="none" stroke="black" d="M430.53,-36.45C438.96,-39.33 447.49,-42.39 455.5,-45.5 465.63,-49.43 476.49,-54.16 486.25,-58.59"/>
<polygon fill="black" stroke="black" points="484.39,-62.05 494.94,-63.07 487.33,-55.7 484.39,-62.05"/>
</g>
</g>
</svg>
